<mxfile host="app.diagrams.net" agent="Mozilla/5.0 (Windows NT 10.0; Win64; x64) AppleWebKit/537.36 (KHTML, like Gecko) Chrome/139.0.0.0 Safari/537.36 Edg/139.0.0.0" version="27.1.5">
  <diagram name="RESCAPE Workflow" id="workflow">
    <mxGraphModel dx="1971" dy="1110" grid="1" gridSize="10" guides="1" tooltips="1" connect="1" arrows="1" fold="1" page="1" pageScale="1" pageWidth="1600" pageHeight="900" math="0" shadow="0">
      <root>
        <mxCell id="0" />
        <mxCell id="1" parent="0" />
        <mxCell id="stage1_bg" value="" style="rounded=1;whiteSpace=wrap;html=1;fillColor=#ffffff;strokeColor=#3498db;strokeWidth=3;shadow=1;" parent="1" vertex="1">
          <mxGeometry x="60" y="120" width="280" height="400" as="geometry" />
        </mxCell>
        <mxCell id="stage1_title" value="Stage 1: Task Arrival" style="text;html=1;strokeColor=none;fillColor=none;align=center;verticalAlign=middle;whiteSpace=wrap;rounded=0;fontSize=18;fontStyle=1;fontColor=#3498db;" parent="1" vertex="1">
          <mxGeometry x="130" y="140" width="140" height="30" as="geometry" />
        </mxCell>
        <mxCell id="llm_request" value="" style="rounded=1;whiteSpace=wrap;html=1;fillColor=#e8f4fd;strokeColor=#3498db;strokeWidth=2;" parent="1" vertex="1">
          <mxGeometry x="80" y="190" width="240" height="60" as="geometry" />
        </mxCell>
        <mxCell id="llm_label" value="LLM Inference Request" style="text;html=1;strokeColor=none;fillColor=none;align=center;verticalAlign=middle;whiteSpace=wrap;rounded=0;fontSize=14;fontStyle=1;fontColor=#2c3e50;" parent="1" vertex="1">
          <mxGeometry x="130" y="200" width="140" height="20" as="geometry" />
        </mxCell>
        <mxCell id="llm_slo" value="SLO: p99 Latency &lt; 100ms" style="text;html=1;strokeColor=none;fillColor=none;align=center;verticalAlign=middle;whiteSpace=wrap;rounded=0;fontSize=12;fontColor=#636e72;" parent="1" vertex="1">
          <mxGeometry x="130" y="230" width="140" height="20" as="geometry" />
        </mxCell>
        <mxCell id="training_request" value="" style="rounded=1;whiteSpace=wrap;html=1;fillColor=#fff3e0;strokeColor=#ff9800;strokeWidth=2;" parent="1" vertex="1">
          <mxGeometry x="80" y="280" width="240" height="60" as="geometry" />
        </mxCell>
        <mxCell id="training_label" value="DL Training Request" style="text;html=1;strokeColor=none;fillColor=none;align=center;verticalAlign=middle;whiteSpace=wrap;rounded=0;fontSize=14;fontStyle=1;fontColor=#2c3e50;" parent="1" vertex="1">
          <mxGeometry x="130" y="290" width="140" height="20" as="geometry" />
        </mxCell>
        <mxCell id="training_goal" value="Goal: Max Throughput" style="text;html=1;strokeColor=none;fillColor=none;align=center;verticalAlign=middle;whiteSpace=wrap;rounded=0;fontSize=12;fontColor=#636e72;" parent="1" vertex="1">
          <mxGeometry x="130" y="310" width="140" height="20" as="geometry" />
        </mxCell>
        <mxCell id="inference_request" value="" style="rounded=1;whiteSpace=wrap;html=1;fillColor=#e8f5e8;strokeColor=#4caf50;strokeWidth=2;" parent="1" vertex="1">
          <mxGeometry x="80" y="370" width="240" height="60" as="geometry" />
        </mxCell>
        <mxCell id="inference_label" value="DL Inference Request" style="text;html=1;strokeColor=none;fillColor=none;align=center;verticalAlign=middle;whiteSpace=wrap;rounded=0;fontSize=14;fontStyle=1;fontColor=#2c3e50;" parent="1" vertex="1">
          <mxGeometry x="130" y="380" width="140" height="20" as="geometry" />
        </mxCell>
        <mxCell id="inference_slo" value="SLO: General QoS" style="text;html=1;strokeColor=none;fillColor=none;align=center;verticalAlign=middle;whiteSpace=wrap;rounded=0;fontSize=12;fontColor=#636e72;" parent="1" vertex="1">
          <mxGeometry x="130" y="400" width="140" height="20" as="geometry" />
        </mxCell>
        <mxCell id="arrow1" value="" style="shape=singleArrow;whiteSpace=wrap;html=1;fillColor=#95a5a6;strokeColor=#7f8c8d;shadow=1;" parent="1" vertex="1">
          <mxGeometry x="370" y="300" width="60" height="40" as="geometry" />
        </mxCell>
        <mxCell id="stage2_bg" value="" style="rounded=1;whiteSpace=wrap;html=1;fillColor=#ffffff;strokeColor=#e74c3c;strokeWidth=3;shadow=1;" parent="1" vertex="1">
          <mxGeometry x="460" y="120" width="280" height="400" as="geometry" />
        </mxCell>
        <mxCell id="stage2_title" value="Stage 2: Performance Prediction" style="text;html=1;strokeColor=none;fillColor=none;align=center;verticalAlign=middle;whiteSpace=wrap;rounded=0;fontSize=18;fontStyle=1;fontColor=#e74c3c;" parent="1" vertex="1">
          <mxGeometry x="520" y="140" width="160" height="30" as="geometry" />
        </mxCell>
        <mxCell id="predictor_bg" value="" style="rounded=1;whiteSpace=wrap;html=1;fillColor=#fdebeb;strokeColor=#e74c3c;strokeWidth=2;" parent="1" vertex="1">
          <mxGeometry x="480" y="190" width="240" height="80" as="geometry" />
        </mxCell>
        <mxCell id="predictor_label" value="Performance Predictor" style="text;html=1;strokeColor=none;fillColor=none;align=center;verticalAlign=middle;whiteSpace=wrap;rounded=0;fontSize=16;fontStyle=1;fontColor=#e74c3c;" parent="1" vertex="1">
          <mxGeometry x="550" y="210" width="100" height="20" as="geometry" />
        </mxCell>
        <mxCell id="predictor_note" value="(Work 3 Contribution)" style="text;html=1;strokeColor=none;fillColor=none;align=center;verticalAlign=middle;whiteSpace=wrap;rounded=0;fontSize=12;fontStyle=2;fontColor=#636e72;" parent="1" vertex="1">
          <mxGeometry x="540" y="235" width="120" height="20" as="geometry" />
        </mxCell>
        <mxCell id="input_title" value="Input:" style="text;html=1;strokeColor=none;fillColor=none;align=left;verticalAlign=middle;whiteSpace=wrap;rounded=0;fontSize=14;fontStyle=1;fontColor=#2c3e50;" parent="1" vertex="1">
          <mxGeometry x="480" y="290" width="50" height="20" as="geometry" />
        </mxCell>
        <mxCell id="input_graph" value="• Computation Graph" style="text;html=1;strokeColor=none;fillColor=none;align=left;verticalAlign=middle;whiteSpace=wrap;rounded=0;fontSize=12;fontColor=#636e72;" parent="1" vertex="1">
          <mxGeometry x="480" y="310" width="140" height="20" as="geometry" />
        </mxCell>
        <mxCell id="input_hardware" value="• Hardware Features" style="text;html=1;strokeColor=none;fillColor=none;align=left;verticalAlign=middle;whiteSpace=wrap;rounded=0;fontSize=12;fontColor=#636e72;" parent="1" vertex="1">
          <mxGeometry x="480" y="330" width="140" height="20" as="geometry" />
        </mxCell>
        <mxCell id="input_example" value="  [A100_features, V100_features]" style="text;html=1;strokeColor=none;fillColor=none;align=left;verticalAlign=middle;whiteSpace=wrap;rounded=0;fontSize=10;fontColor=#95a5a6;" parent="1" vertex="1">
          <mxGeometry x="480" y="350" width="180" height="20" as="geometry" />
        </mxCell>
        <mxCell id="output_title" value="Output:" style="text;html=1;strokeColor=none;fillColor=none;align=left;verticalAlign=middle;whiteSpace=wrap;rounded=0;fontSize=14;fontStyle=1;fontColor=#2c3e50;" parent="1" vertex="1">
          <mxGeometry x="480" y="380" width="60" height="20" as="geometry" />
        </mxCell>
        <mxCell id="output_jct" value="• JCT (Job Completion Time)" style="text;html=1;strokeColor=none;fillColor=none;align=left;verticalAlign=middle;whiteSpace=wrap;rounded=0;fontSize=12;fontColor=#636e72;" parent="1" vertex="1">
          <mxGeometry x="480" y="400" width="180" height="20" as="geometry" />
        </mxCell>
        <mxCell id="output_memory" value="• Peak GPU Memory" style="text;html=1;strokeColor=none;fillColor=none;align=left;verticalAlign=middle;whiteSpace=wrap;rounded=0;fontSize=12;fontColor=#636e72;" parent="1" vertex="1">
          <mxGeometry x="480" y="420" width="140" height="20" as="geometry" />
        </mxCell>
        <mxCell id="output_cpu" value="• CPU/Main Memory Usage" style="text;html=1;strokeColor=none;fillColor=none;align=left;verticalAlign=middle;whiteSpace=wrap;rounded=0;fontSize=12;fontColor=#636e72;" parent="1" vertex="1">
          <mxGeometry x="480" y="440" width="160" height="20" as="geometry" />
        </mxCell>
        <mxCell id="arrow2" value="" style="shape=singleArrow;whiteSpace=wrap;html=1;fillColor=#95a5a6;strokeColor=#7f8c8d;shadow=1;" parent="1" vertex="1">
          <mxGeometry x="770" y="300" width="60" height="40" as="geometry" />
        </mxCell>
        <mxCell id="stage3_bg" value="" style="rounded=1;whiteSpace=wrap;html=1;fillColor=#ffffff;strokeColor=#9b59b6;strokeWidth=3;shadow=1;" parent="1" vertex="1">
          <mxGeometry x="860" y="120" width="320" height="400" as="geometry" />
        </mxCell>
        <mxCell id="stage3_title" value="Stage 3: Plan Generation &amp; Optimization" style="text;html=1;strokeColor=none;fillColor=none;align=center;verticalAlign=middle;whiteSpace=wrap;rounded=0;fontSize=18;fontStyle=1;fontColor=#9b59b6;" parent="1" vertex="1">
          <mxGeometry x="920" y="140" width="200" height="30" as="geometry" />
        </mxCell>
        <mxCell id="converter_bg" value="" style="rounded=1;whiteSpace=wrap;html=1;fillColor=#f4ecf7;strokeColor=#9b59b6;strokeWidth=2;" parent="1" vertex="1">
          <mxGeometry x="880" y="190" width="280" height="80" as="geometry" />
        </mxCell>
        <mxCell id="converter_label" value="Metrics Converter &amp; Cost Estimator" style="text;html=1;strokeColor=none;fillColor=none;align=center;verticalAlign=middle;whiteSpace=wrap;rounded=0;fontSize=14;fontStyle=1;fontColor=#9b59b6;" parent="1" vertex="1">
          <mxGeometry x="940" y="210" width="160" height="20" as="geometry" />
        </mxCell>
        <mxCell id="converter_func1" value="• JCT → Latency/Throughput" style="text;html=1;strokeColor=none;fillColor=none;align=left;verticalAlign=middle;whiteSpace=wrap;rounded=0;fontSize=11;fontColor=#636e72;" parent="1" vertex="1">
          <mxGeometry x="890" y="230" width="140" height="20" as="geometry" />
        </mxCell>
        <mxCell id="converter_func2" value="• (GPU_Type, Mem) → Cost_Score" style="text;html=1;strokeColor=none;fillColor=none;align=left;verticalAlign=middle;whiteSpace=wrap;rounded=0;fontSize=11;fontColor=#636e72;" parent="1" vertex="1">
          <mxGeometry x="890" y="250" width="160" height="20" as="geometry" />
        </mxCell>
        <mxCell id="optimizer_bg" value="" style="rounded=1;whiteSpace=wrap;html=1;fillColor=#f4ecf7;strokeColor=#9b59b6;strokeWidth=2;" parent="1" vertex="1">
          <mxGeometry x="880" y="290" width="280" height="140" as="geometry" />
        </mxCell>
        <mxCell id="optimizer_label" value="Multi-objective Optimizer" style="text;html=1;strokeColor=none;fillColor=none;align=center;verticalAlign=middle;whiteSpace=wrap;rounded=0;fontSize=14;fontStyle=1;fontColor=#9b59b6;" parent="1" vertex="1">
          <mxGeometry x="970" y="310" width="100" height="20" as="geometry" />
        </mxCell>
        <mxCell id="optimizer_alg1" value="• SLO Constraint Filtering" style="text;html=1;strokeColor=none;fillColor=none;align=left;verticalAlign=middle;whiteSpace=wrap;rounded=0;fontSize=11;fontColor=#636e72;" parent="1" vertex="1">
          <mxGeometry x="890" y="335" width="140" height="20" as="geometry" />
        </mxCell>
        <mxCell id="optimizer_alg2" value="• Global Cost Minimization" style="text;html=1;strokeColor=none;fillColor=none;align=left;verticalAlign=middle;whiteSpace=wrap;rounded=0;fontSize=11;fontColor=#636e72;" parent="1" vertex="1">
          <mxGeometry x="890" y="355" width="140" height="20" as="geometry" />
        </mxCell>
        <mxCell id="optimizer_alg3" value="• Priority-based Preemption" style="text;html=1;strokeColor=none;fillColor=none;align=left;verticalAlign=middle;whiteSpace=wrap;rounded=0;fontSize=11;fontColor=#636e72;" parent="1" vertex="1">
          <mxGeometry x="890" y="375" width="140" height="20" as="geometry" />
        </mxCell>
        <mxCell id="optimizer_priority" value="  LLM &gt; Inference &gt; Training" style="text;html=1;strokeColor=none;fillColor=none;align=left;verticalAlign=middle;whiteSpace=wrap;rounded=0;fontSize=10;fontColor=#95a5a6;" parent="1" vertex="1">
          <mxGeometry x="890" y="395" width="140" height="20" as="geometry" />
        </mxCell>
        <mxCell id="optimizer_output" value="Output: Scheduling Decision" style="text;html=1;strokeColor=none;fillColor=none;align=center;verticalAlign=middle;whiteSpace=wrap;rounded=0;fontSize=12;fontStyle=1;fontColor=#2c3e50;" parent="1" vertex="1">
          <mxGeometry x="940" y="450" width="140" height="20" as="geometry" />
        </mxCell>
        <mxCell id="arrow3" value="" style="shape=singleArrow;whiteSpace=wrap;html=1;fillColor=#95a5a6;strokeColor=#7f8c8d;shadow=1;" parent="1" vertex="1">
          <mxGeometry x="1210" y="300" width="60" height="40" as="geometry" />
        </mxCell>
        <mxCell id="stage4_bg" value="" style="rounded=1;whiteSpace=wrap;html=1;fillColor=#ffffff;strokeColor=#27ae60;strokeWidth=3;shadow=1;" parent="1" vertex="1">
          <mxGeometry x="1300" y="120" width="260" height="400" as="geometry" />
        </mxCell>
        <mxCell id="stage4_title" value="Stage 4: Execution &amp; Adjustment" style="text;html=1;strokeColor=none;fillColor=none;align=center;verticalAlign=middle;whiteSpace=wrap;rounded=0;fontSize=18;fontStyle=1;fontColor=#27ae60;" parent="1" vertex="1">
          <mxGeometry x="1340" y="140" width="180" height="30" as="geometry" />
        </mxCell>
        <mxCell id="cluster_title" value="Heterogeneous GPU Cluster" style="text;html=1;strokeColor=none;fillColor=none;align=center;verticalAlign=middle;whiteSpace=wrap;rounded=0;fontSize=14;fontStyle=1;fontColor=#2c3e50;" parent="1" vertex="1">
          <mxGeometry x="1350" y="180" width="160" height="20" as="geometry" />
        </mxCell>
        <mxCell id="node1_bg" value="" style="rounded=1;whiteSpace=wrap;html=1;fillColor=#eafaf1;strokeColor=#27ae60;strokeWidth=2;" parent="1" vertex="1">
          <mxGeometry x="1320" y="210" width="220" height="100" as="geometry" />
        </mxCell>
        <mxCell id="node1_title" value="Node 1" style="text;html=1;strokeColor=none;fillColor=none;align=left;verticalAlign=middle;whiteSpace=wrap;rounded=0;fontSize=12;fontStyle=1;fontColor=#27ae60;" parent="1" vertex="1">
          <mxGeometry x="1330" y="220" width="50" height="20" as="geometry" />
        </mxCell>
        <mxCell id="a100_gpu" value="A100" style="rounded=0;whiteSpace=wrap;html=1;fillColor=#3498db;strokeColor=#2980b9;fontSize=11;fontStyle=1;fontColor=#ffffff;" parent="1" vertex="1">
          <mxGeometry x="1330" y="250" width="40" height="25" as="geometry" />
        </mxCell>
        <mxCell id="llm_stage1" value="LLM-S1" style="text;html=1;strokeColor=none;fillColor=none;align=center;verticalAlign=middle;whiteSpace=wrap;rounded=0;fontSize=9;fontColor=#3498db;" parent="1" vertex="1">
          <mxGeometry x="1330" y="275" width="40" height="15" as="geometry" />
        </mxCell>
        <mxCell id="v100_gpu1" value="V100" style="rounded=0;whiteSpace=wrap;html=1;fillColor=#3498db;strokeColor=#2980b9;fontSize=11;fontStyle=1;fontColor=#ffffff;" parent="1" vertex="1">
          <mxGeometry x="1390" y="250" width="40" height="25" as="geometry" />
        </mxCell>
        <mxCell id="llm_stage2" value="LLM-S2" style="text;html=1;strokeColor=none;fillColor=none;align=center;verticalAlign=middle;whiteSpace=wrap;rounded=0;fontSize=9;fontColor=#3498db;" parent="1" vertex="1">
          <mxGeometry x="1390" y="275" width="40" height="15" as="geometry" />
        </mxCell>
        <mxCell id="v100_gpu2" value="V100" style="rounded=0;whiteSpace=wrap;html=1;fillColor=#ff9800;strokeColor=#f57c00;fontSize=11;fontStyle=1;fontColor=#ffffff;" parent="1" vertex="1">
          <mxGeometry x="1450" y="250" width="40" height="25" as="geometry" />
        </mxCell>
        <mxCell id="training_task" value="Training" style="text;html=1;strokeColor=none;fillColor=none;align=center;verticalAlign=middle;whiteSpace=wrap;rounded=0;fontSize=9;fontColor=#ff9800;" parent="1" vertex="1">
          <mxGeometry x="1450" y="275" width="40" height="15" as="geometry" />
        </mxCell>
        <mxCell id="preemptible" value="(Preemptible)" style="text;html=1;strokeColor=none;fillColor=none;align=center;verticalAlign=middle;whiteSpace=wrap;rounded=0;fontSize=8;fontColor=#95a5a6;" parent="1" vertex="1">
          <mxGeometry x="1450" y="290" width="40" height="15" as="geometry" />
        </mxCell>
        <mxCell id="node2_bg" value="" style="rounded=1;whiteSpace=wrap;html=1;fillColor=#eafaf1;strokeColor=#27ae60;strokeWidth=2;" parent="1" vertex="1">
          <mxGeometry x="1320" y="330" width="220" height="80" as="geometry" />
        </mxCell>
        <mxCell id="node2_title" value="Node 2" style="text;html=1;strokeColor=none;fillColor=none;align=left;verticalAlign=middle;whiteSpace=wrap;rounded=0;fontSize=12;fontStyle=1;fontColor=#27ae60;" parent="1" vertex="1">
          <mxGeometry x="1330" y="340" width="50" height="20" as="geometry" />
        </mxCell>
        <mxCell id="t4_gpu" value="T4" style="rounded=0;whiteSpace=wrap;html=1;fillColor=#4caf50;strokeColor=#388e3c;fontSize=11;fontStyle=1;fontColor=#ffffff;" parent="1" vertex="1">
          <mxGeometry x="1330" y="370" width="40" height="25" as="geometry" />
        </mxCell>
        <mxCell id="dl_inference" value="DL-Inf" style="text;html=1;strokeColor=none;fillColor=none;align=center;verticalAlign=middle;whiteSpace=wrap;rounded=0;fontSize=9;fontColor=#4caf50;" parent="1" vertex="1">
          <mxGeometry x="1330" y="395" width="40" height="15" as="geometry" />
        </mxCell>
        <mxCell id="feedback_arrow" value="" style="endArrow=classic;html=1;rounded=1;strokeWidth=2;strokeColor=#95a5a6;dashed=1;curved=1;" parent="1" edge="1">
          <mxGeometry width="50" height="50" relative="1" as="geometry">
            <mxPoint x="1430" y="450" as="sourcePoint" />
            <mxPoint x="1020" y="430" as="targetPoint" />
          </mxGeometry>
        </mxCell>
        <mxCell id="feedback_label" value="Real-time Monitoring &amp; Feedback" style="text;html=1;strokeColor=none;fillColor=none;align=center;verticalAlign=middle;whiteSpace=wrap;rounded=0;fontSize=11;fontColor=#95a5a6;" parent="1" vertex="1">
          <mxGeometry x="1170" y="470" width="160" height="20" as="geometry" />
        </mxCell>
      </root>
    </mxGraphModel>
  </diagram>
</mxfile>
